<?xml version="1.0" encoding="UTF-8"?>
<svg id="Layer_1" data-name="Layer 1" xmlns="http://www.w3.org/2000/svg" viewBox="0 0 311 278">
  <path fill="#ffffff" d="M178.61,228.3c6.89-1.82,13.14-5.2,18.46-9.93,3.11-3.02,5.96-6.12,8.26-9.79,1.56-2.48,2.99-4.87,4.15-7.56,2.07-4.8,3.64-9.59,4.67-14.74,1.15-5.72,1.78-11.5,1.78-17.4v-94.88c0-9.24-1.09-18.94-3.64-27.75-2.59-8.97-7.84-18.72-14.85-24.93-5.43-4.81-11.73-8.27-18.66-10.41-6.02-1.86-12.12-2.84-18.44-3.1-18.55-.77-37.42,3.43-49.73,18.11-7.11,8.48-11.47,20.35-13.06,31.25-.72,4.96-1.23,9.86-1.23,14.78-.11,18.08-.14,36.21-.1,54.4-.21,1.97-.29,3.92-.26,5.86l-.44,3.82c-.29,22.27-.43,33.41-.43,33.41-.48,16.65,3.92,34.72,16.33,46.76,3.98,4,8.7,7.11,13.6,9.65,2.54,1.03,5.1,1.93,7.88,2.43l9.32,1.69.03,37.54c0,1.52,1.22,2.74,2.73,2.74h68.3c1.37,0,2.62-1.06,2.62-2.43v-15.28c0-1.27-1.2-2.33-2.46-2.33h-43.05c-.21-.01-.36,0-.43-.06-.06-.04-.07-.18-.07-.36l.02-19.77,8.68-1.74ZM169.9,200.96v-103.26c.18-1.35-.59-2.78-1.9-2.79l-23.87-.06c-.94.23-1.87.97-1.87,2.09l-.04,104.52c-3.67-1.65-6.33-4.46-8.05-7.89-3.92-7.07-5-16.37-5.01-24.51l-.02-97.17c0-4.48.38-8.84.96-13.24.52-4.02,1.5-7.74,3.08-11.47,1.98-4.69,5.47-8.61,10.16-10.7,7.29-3.24,17.52-3.11,24.99-.27,4.67,1.78,8.17,5.48,10.29,9.96,1.32,2.79,2.25,5.61,2.86,8.67.95,4.8,1.5,9.52,1.51,14.49l.02,51.62v46.44c.01,4.86-.24,9.47-.99,14.21-.63,4.01-1.74,7.73-3.53,11.34-1.48,2.96-3.44,5.52-6.21,7.33l-1.98,1.05c-.11.06-.31.1-.36.05-.05-.05-.05-.17-.05-.41Z"/>
</svg>