<?xml version="1.0" encoding="UTF-8"?>
<svg id="Layer_2" data-name="Layer 2" xmlns="http://www.w3.org/2000/svg" viewBox="0 0 476.01 949.17">
  <defs>
    <style>
      .cls-1 {
        fill: #ddd;
      }
    </style>
  </defs>
  <g id="Layer_1-2" data-name="Layer 1">
    <path class="cls-1" d="M244.99,845.64v-67.29c7.44-1.86,14.59-4.14,21.45-6.84,22.15-8.72,41.58-20.7,58.3-35.96,13.08-12.34,23.43-25.06,31.06-38.14,7.63-13.08,13.25-26.32,16.89-39.77,3.63-13.43,5.99-27.24,7.08-41.41,1.09-14.17,1.64-28.5,1.64-43.04V211.41c0-14.52-.55-28.88-1.64-43.04-1.09-14.17-3.46-27.96-7.08-41.41-3.64-13.43-9.26-26.7-16.89-39.77-7.63-13.08-17.98-25.78-31.06-38.14-16.72-15.26-36.15-27.24-58.3-35.96C244.27,4.36,219.03,0,190.7,0s-53.58,4.36-75.74,13.08c-22.17,8.72-41.6,20.7-58.3,35.96-13.08,12.36-23.43,25.06-31.06,38.14-7.63,13.08-13.26,26.34-16.89,39.77-3.64,13.45-5.99,27.24-7.08,41.41-1.09,14.17-1.63,28.52-1.63,43.04v361.79c0,14.54.54,28.88,1.63,43.04,1.09,14.17,3.44,27.98,7.08,41.41,3.63,13.45,9.26,26.7,16.89,39.77,7.63,13.08,17.98,25.8,31.06,38.14,16.7,15.26,36.13,27.24,58.3,35.96,6.73,2.65,13.75,4.89,21.05,6.73v170.91h339.99v-103.52h-231.02ZM131.86,656.01c-10.18-10.16-16.53-20.87-19.07-32.15-2.55-11.25-3.81-22.7-3.81-34.33V195.06c0-11.61,1.26-23.05,3.81-34.33,2.54-11.26,8.89-21.96,19.07-32.15,5.81-5.81,13.62-10.9,23.43-15.26,9.81-4.36,21.61-6.54,35.42-6.54s25.61,2.18,35.42,6.54c9.81,4.36,17.61,9.45,23.43,15.26,10.16,10.18,16.52,20.89,19.07,32.15,2.54,11.27,3.81,22.71,3.81,34.33v394.48c0,11.63-1.28,23.07-3.81,34.33-2.55,11.27-8.91,21.98-19.07,32.15-1.4,1.4-2.92,2.76-4.56,4.07V186.36h-108.97v473.39c-1.48-1.21-2.88-2.46-4.16-3.75Z"/>
  </g>
</svg>